<svg xmlns="http://www.w3.org/2000/svg" viewBox="0 0 426.66 299.87"><defs><style>.cls-1{isolation:isolate;}.cls-2{fill:#f4fbfe;}.cls-3{opacity:0.7;}.cls-13,.cls-3,.cls-6,.cls-7,.cls-9{mix-blend-mode:multiply;}.cls-4{fill:#e0e0df;}.cls-5{fill:#ed2224;}.cls-6{opacity:0.5;}.cls-10,.cls-7{fill:#c0bfbf;}.cls-8{fill:#6bbf6a;}.cls-9{opacity:0.3;}.cls-11{fill:#69706b;}.cls-12{fill:#6bc06b;}.cls-13{opacity:0.05;}</style></defs><g class="cls-1"><g id="Layer_2" data-name="Layer 2"><g id="Layer_1-2" data-name="Layer 1"><path class="cls-2" d="M416.44,7.06c-16.8-1-36-2.14-52.76-3.16-.31,0-16.42-1-16.74-1-8.43-1-20.22-1.65-21,9.76,0,7.56-3.35,20.78,3.2,26.67l-20-2.41c1.08-17.34-14.84-13.65-26.52-13.73-9.07.14-19.29.25-28.37.38-3.63-7-15.64-10.83-26.63-10.61-9.66-1.44-19.73,1.87-24.78,10.17-9.7-.06-21.13,0-30.8,0-8.67.72-23.61-3.39-26.79,7.83-4.52-4.42-12.29-2.21-18-2.25-6.41,1-16.5-1.13-21.62,3.76,2.16-4.49-.62-17.84-.72-22.67C103.67-1.68,91.84-.51,83.4.82L65.5,2.56c-5.67.71-15,.08-18,6.33-7.9-6.22-25.39-1.51-34.41-1.23a11,11,0,0,0-9.89,12c1.22,9.11-.08,25,10.79,28.9l6.42,66C-3.1,115.82-1,130.72,1.4,148.91c1.39,14.81,21.06,8.4,30.31,8.11-.51,9.42-4.2,24.85,5.68,30.84l-3.21,61.37c-9.58-1.65-21.46,3.54-21.81,15,.32,5.64-3,18.48,2,22.87,3.93,6,24.52,3.65,30.41,4.82l16.92.89c5.3.1,14.16,2,17.92-3,7.26,5.76,23.24,7.4,30.38.82,3-.94,4.82-10.14,6-22.59h1.26c-.82,5.77,0,12.29,0,17.09a11,11,0,0,0,11.22,10.76c6.79-.12,19-.43,25.89-.54,6.08-.14,15.82.89,18.79-5.9,8.62,8.46,26.37,7.31,38.19,7.67,10.45.31,19.47-2.83,25.59-9.69-.17,13,11.06,13.06,20.88,12,2.14-.11,14.43-.68,16.57-.77,10.75-2.17,44.72,3.39,49.86-10.28,4,10.47,18.78,10.54,26,10.14,15.3-1.35,14.75-17.48,15.44-29.35.51-3.66,1.54-14.46,1.71-18.38,9.12.82,22.52,2.35,28-5.8,7-8.28,5.22-40.52,7.09-50.64-.69-11.39,8.93-35.1-13.11-34.31l.23-11.38a11,11,0,0,0,8.2-10c.27-8.87,3.7-23.43-5.79-28.95l1.17-19.68,20.18-41.84c6.11-.88,12.42-7.8,12.42-14.52C426.23,24.69,430.15,7.86,416.44,7.06ZM348.1,287.7h0Z"/><g class="cls-3"><path class="cls-4" d="M56.9,122.24a2.61,2.61,0,0,0,1,1.78,3.55,3.55,0,0,0,1.94.6L55.88,84.41l-3.45-8.1Z"/><path class="cls-4" d="M98.43,29a5.31,5.31,0,0,1-1.17,3.87,7.2,7.2,0,0,1-3.58,1.91,3.66,3.66,0,0,0-1.8.95,2.69,2.69,0,0,0-.58,1.94l9.62,98.84a5.32,5.32,0,0,1-4.78,5.81l-7.22.71a10.57,10.57,0,0,1-6.18-1.29,10.84,10.84,0,0,0,2.86,2.37,10.68,10.68,0,0,0,6.21,1.3l7.22-.71a5.3,5.3,0,0,0,4.78-5.81L94.19,40.08a2.61,2.61,0,0,1,.59-1.94,3.59,3.59,0,0,1,1.79-1,7.2,7.2,0,0,0,3.58-1.91,5.31,5.31,0,0,0,1.17-3.87L99.78,15.6l-2.63.26Z"/><path class="cls-4" d="M24.4,41.55a16,16,0,0,1-2.28-.38,5.44,5.44,0,0,0,1.3,1.58,7.15,7.15,0,0,0,3.87,1.18,2.68,2.68,0,0,0-.95-1.79A3.65,3.65,0,0,0,24.4,41.55Z"/><path class="cls-4" d="M42.26,150.26,18.2,152.6,17.94,150l21.43-2.08,17.9-1.74c-1.7.16.6,2.6,2.89,2.38"/><path class="cls-4" d="M39.37,147.88c2.29-.22,5.18,2.16,2.89,2.38l17.9-1.74,9.84-1-1.54-15.81a5.25,5.25,0,0,0-1.9-3.57,4.31,4.31,0,0,0-1.6-.8,5.23,5.23,0,0,1,.61,2l1.54,15.8-9.84,1"/><path class="cls-4" d="M74.6,85.54,74.05,80,51.53,27.72a10.53,10.53,0,0,0-4.35-4.94L47,22.67a10.49,10.49,0,0,1,1.67,2.67Z"/><path class="cls-4" d="M79.54,20.83a6.44,6.44,0,0,0-.61-.55,8.9,8.9,0,0,0-1.57-1A8.9,8.9,0,0,1,79.28,24,9,9,0,0,1,79.54,20.83Z"/><path class="cls-4" d="M69.19,38a3.65,3.65,0,0,0-1.94-.59A16,16,0,0,1,65,37a5.28,5.28,0,0,0,1.3,1.58,7.15,7.15,0,0,0,3.87,1.18h0A2.6,2.6,0,0,0,69.19,38Z"/></g><path class="cls-5" d="M66.57,13.51,57,14.44l1.53,15.81a5.32,5.32,0,0,0,1.91,3.57A7.19,7.19,0,0,0,64.36,35a3.65,3.65,0,0,1,1.94.59,2.7,2.7,0,0,1,1,1.79l4.46,45.78L45.75,23A10.65,10.65,0,0,0,35,16.59l-20.77,2,1.54,15.81A5.27,5.27,0,0,0,17.63,38a7.16,7.16,0,0,0,3.88,1.18,3.65,3.65,0,0,1,1.94.59,2.7,2.7,0,0,1,.95,1.79L32.23,122a2.66,2.66,0,0,1-.59,1.93c-.47.57-15.44,2.13-16.08,2.35A7.13,7.13,0,0,0,12,128.17,5.26,5.26,0,0,0,10.81,132l1.54,15.81,24.13-2.35,17.9-1.74,9.84-1L62.68,127a5.26,5.26,0,0,0-1.91-3.57,7.07,7.07,0,0,0-3.87-1.18,3.55,3.55,0,0,1-1.94-.6,2.57,2.57,0,0,1-1-1.78L49.54,73.93l25.91,60.84A10.62,10.62,0,0,0,86,140.68l7.22-.71a5.3,5.3,0,0,0,4.77-5.8L88.4,35.32A2.7,2.7,0,0,1,89,33.38a3.67,3.67,0,0,1,1.79-1,7.12,7.12,0,0,0,3.58-1.91,5.27,5.27,0,0,0,1.18-3.87L94,10.84l-9.53.93Z"/><g class="cls-6"><polyline class="cls-7" points="90.25 16.53 94.51 16.11 94.26 13.48 87.36 14.15"/><path class="cls-7" d="M90.25,16.53l-2.89-2.38-17.9,1.74-9.53.93,1.54,15.8a5.41,5.41,0,0,0,.61,2,16,16,0,0,0,2.28.38h0L62.82,19.2l9.54-.93Z"/><path class="cls-7" d="M59.79,124.62h0a2.65,2.65,0,0,0,1,1.78,3.46,3.46,0,0,0,1.94.59h0a5.42,5.42,0,0,0-.61-2,16,16,0,0,0-2.28-.38Z"/><path class="cls-7" d="M70.14,39.76,74.05,80l3.44,8L73,42.14a2.65,2.65,0,0,0-1-1.79A3.51,3.51,0,0,0,70.14,39.76Z"/><path class="cls-7" d="M55.32,78.69l.56,5.72,22.46,52.74a11.15,11.15,0,0,0,1.51,2.24,10.3,10.3,0,0,0,1.75.76c-.12-.21-.26-.41-.36-.63Z"/><path class="cls-7" d="M17.84,132.92A7.2,7.2,0,0,1,21.42,131c.64-.21,15.54-1.77,16-2.34a2.58,2.58,0,0,0,.59-1.93L30.18,46.31a2.62,2.62,0,0,0-.95-1.79,3.62,3.62,0,0,0-1.94-.59h0l7.83,80.43a2.7,2.7,0,0,1-.59,1.94c-.47.56-15.36,2.12-16,2.33A7.21,7.21,0,0,0,15,130.54a5.29,5.29,0,0,0-1.18,3.88l1.28,13.17,2.64-.26-1-10.53A5.27,5.27,0,0,1,17.84,132.92Z"/><path class="cls-7" d="M40.74,21.35a10.55,10.55,0,0,1,4.44.53,10.73,10.73,0,0,0-1.1-1.59A10.67,10.67,0,0,0,37.85,19L17.08,21,18.62,36.8a5.42,5.42,0,0,0,.61,2,16,16,0,0,0,2.28.38h0L20,23.37Z"/></g><g class="cls-3"><path class="cls-4" d="M67.66,262.16a2.47,2.47,0,0,0,.65,1.8,3.38,3.38,0,0,0,1.72.83l2-38-2.09-8Z"/><path class="cls-4" d="M119.42,181.14a5,5,0,0,1-1.63,3.44,6.86,6.86,0,0,1-3.6,1.28,3.41,3.41,0,0,0-1.81.63,2.55,2.55,0,0,0-.82,1.73l-4.88,93.44a5,5,0,0,1-5.27,4.74l-6.82-.35A10,10,0,0,1,89,284a9.93,9.93,0,0,0,2.33,2.61A10,10,0,0,0,97,288.67l6.82.36a5,5,0,0,0,5.27-4.75l4.88-93.44a2.55,2.55,0,0,1,.82-1.73,3.38,3.38,0,0,1,1.81-.63,6.69,6.69,0,0,0,3.6-1.28,4.94,4.94,0,0,0,1.63-3.44l.79-14.94-2.5-.14Z"/><path class="cls-4" d="M48.69,182.43a15,15,0,0,1-2.06-.67,4.91,4.91,0,0,0,1,1.65,6.66,6.66,0,0,0,3.44,1.64,2.51,2.51,0,0,0-.63-1.8A3.4,3.4,0,0,0,48.69,182.43Z"/><path class="cls-4" d="M50.11,286.22,27.36,285l.13-2.49,20.25,1.06,16.92.88c-1.6-.08.2,2.51,2.36,2.62"/><path class="cls-4" d="M47.74,283.6c2.16.11,4.53,2.73,2.37,2.62L67,287.1l9.31.49.78-14.94a5,5,0,0,0-1.27-3.6,4.18,4.18,0,0,0-1.38-1,5.19,5.19,0,0,1,.29,1.95L74,285l-9.31-.49"/><path class="cls-4" d="M89.3,230.45l.28-5.28L75.91,173.35a9.9,9.9,0,0,0-3.37-5.22l-.17-.13a9.86,9.86,0,0,1,1.18,2.73Z"/><path class="cls-4" d="M90.93,185.37a3.44,3.44,0,0,0-1.73-.82,15.14,15.14,0,0,1-2.07-.67,5.11,5.11,0,0,0,1,1.65,6.73,6.73,0,0,0,3.44,1.64h0A2.46,2.46,0,0,0,90.93,185.37Z"/></g><path class="cls-8" d="M91.91,162.22l-9-.48-.78,14.95a5,5,0,0,0,1.27,3.6,6.89,6.89,0,0,0,3.45,1.64,3.48,3.48,0,0,1,1.73.82,2.45,2.45,0,0,1,.63,1.8l-2.26,43.28L71.19,168.11A10,10,0,0,0,62,160.65l-19.63-1-.79,14.94a5,5,0,0,0,1.28,3.6,6.73,6.73,0,0,0,3.44,1.64,3.41,3.41,0,0,1,1.72.82,2.47,2.47,0,0,1,.64,1.8l-4,76a2.53,2.53,0,0,1-.82,1.72c-.52.46-14.68-.18-15.31-.07a6.73,6.73,0,0,0-3.6,1.27,5,5,0,0,0-1.64,3.45l-.78,14.94L45.38,281l16.92.88,9.31.49.78-15a5,5,0,0,0-1.28-3.59,6.7,6.7,0,0,0-3.45-1.65,3.33,3.33,0,0,1-1.72-.82,2.45,2.45,0,0,1-.63-1.8l2.27-43.41L83.2,276.44a10,10,0,0,0,3.41,4.9,10.1,10.1,0,0,0,5.62,2.09l6.82.35a5,5,0,0,0,5.26-4.74l4.89-93.44a2.49,2.49,0,0,1,.82-1.73,3.44,3.44,0,0,1,1.8-.64,6.73,6.73,0,0,0,3.6-1.27,5,5,0,0,0,1.64-3.45l.78-14.94-9-.47Z"/><g class="cls-9"><path class="cls-7" d="M111.19,165.72l-16.92-.88-9-.47-.78,14.94a5.22,5.22,0,0,0,.29,1.95,16.13,16.13,0,0,0,2.07.67h0L87.63,167l9,.47,16.92.88,4,.21.13-2.48Z"/><path class="cls-7" d="M91.56,187.17l-2,38,2.08,7.91,2.27-43.29a2.52,2.52,0,0,0-.64-1.8A3.4,3.4,0,0,0,91.56,187.17Z"/><path class="cls-7" d="M72.3,221.37l-.28,5.4,13.54,52.29a9.87,9.87,0,0,0,1.09,2.3,11.07,11.07,0,0,0,1.52,1c-.08-.22-.18-.42-.25-.64Z"/><path class="cls-7" d="M29.78,266.64a6.73,6.73,0,0,1,3.6-1.27c.62-.11,14.73.52,15.24.06a2.46,2.46,0,0,0,.82-1.72l4-76a2.49,2.49,0,0,0-.63-1.81,3.31,3.31,0,0,0-1.73-.81h0l-4,76a2.53,2.53,0,0,1-.82,1.72c-.52.46-14.61-.18-15.24-.06a6.7,6.7,0,0,0-3.6,1.27,5,5,0,0,0-1.64,3.45l-.66,12.45,2.5.13.52-10A5,5,0,0,1,29.78,266.64Z"/><path class="cls-7" d="M66.75,165.9A9.84,9.84,0,0,1,70.81,167a10,10,0,0,0-.8-1.64,9.94,9.94,0,0,0-5.62-2.1l-19.64-1L44,177.19a5,5,0,0,0,.3,1.95,15,15,0,0,0,2.06.67h0l.78-14.94Z"/></g><g class="cls-3"><path class="cls-4" d="M345.81,37.33a4.94,4.94,0,0,0-2-.85l-.75-.22a16.75,16.75,0,0,1-2.07-.69,5,5,0,0,0,1,1.66,6.8,6.8,0,0,0,3.44,1.68l.76.22a9.93,9.93,0,0,1,1.14.35l-.1-.29A4.19,4.19,0,0,0,345.81,37.33Z"/><path class="cls-4" d="M372.44,36.55a4.79,4.79,0,0,1-2.38,1,2.16,2.16,0,0,0-1.62,2.79L376,63.27l.87-1.85L370.79,43a2.16,2.16,0,0,1,1.62-2.79,4.79,4.79,0,0,0,2.38-1,5,5,0,0,0,1.67-3.45l.9-15-2.5-.15-.75,12.49A5,5,0,0,1,372.44,36.55Z"/><path class="cls-4" d="M417.23,35.68a4.92,4.92,0,0,1-1.68,3.44,6.67,6.67,0,0,1-3.61,1.26l-.77.13a5,5,0,0,0-2.13.61,4.18,4.18,0,0,0-1.57,1.68L384.76,89.88l-1.66,27.85a2.45,2.45,0,0,0,.63,1.81,3.32,3.32,0,0,0,1.72.84h0l1.66-27.85,22.71-47.08a4.14,4.14,0,0,1,1.58-1.68,5,5,0,0,1,2.12-.61l.77-.13a6.75,6.75,0,0,0,3.61-1.26,5,5,0,0,0,1.69-3.44l.89-15-2.5-.15Z"/><path class="cls-4" d="M391.25,124.71a4.14,4.14,0,0,0-1.38-1,5,5,0,0,1,.28,2l-.9,15-26.32-1.57-.29,0-6.54-.39-.15,2.5,9,.54.29,0,26.32,1.57.9-15A5,5,0,0,0,391.25,124.71Z"/></g><path class="cls-5" d="M406.38,17.48l-17-1h0L380,15.9l-.89,15a5,5,0,0,0,1.24,3.62,4.92,4.92,0,0,0,2.23,1.32,2.15,2.15,0,0,1,1.29,3L373.64,60.61l-7.55-22.89a2.14,2.14,0,0,1,1.62-2.78,4.75,4.75,0,0,0,2.37-1,5,5,0,0,0,1.68-3.44l.9-15-9.41-.57h0l-17-1h0l-9.41-.56-.9,15a5,5,0,0,0,1.25,3.62,6.79,6.79,0,0,0,3.45,1.68l.75.22a5,5,0,0,1,2,.85,4.27,4.27,0,0,1,1.37,1.86L361.76,86l-1.67,27.85a2.51,2.51,0,0,1-.84,1.73,3.31,3.31,0,0,1-1.81.62,6.79,6.79,0,0,0-3.62,1.26,5,5,0,0,0-1.68,3.44l-.9,15,9.34.56,17,1,9.34.56.9-15a5,5,0,0,0-1.26-3.62,6.64,6.64,0,0,0-3.44-1.68,3.32,3.32,0,0,1-1.72-.84,2.45,2.45,0,0,1-.63-1.81l1.66-27.85,22.71-47.08a4.18,4.18,0,0,1,1.57-1.68,5,5,0,0,1,2.13-.61l.77-.13a6.67,6.67,0,0,0,3.61-1.26A4.92,4.92,0,0,0,414.88,33l.9-15-9.41-.57Z"/><g class="cls-6"><path class="cls-7" d="M358.52,122.75a6.69,6.69,0,0,1,3.62-1.25,3.44,3.44,0,0,0,1.82-.63,2.54,2.54,0,0,0,.83-1.73l1.67-27.85L349.53,41.84A4.19,4.19,0,0,0,348.16,40a3.41,3.41,0,0,0-.88-.5L364.1,88.64l-1.66,27.85a2.51,2.51,0,0,1-.84,1.73,3.29,3.29,0,0,1-1.81.62,6.79,6.79,0,0,0-3.62,1.26,5,5,0,0,0-1.68,3.44l-.75,12.5,2.51.15.59-10A5,5,0,0,1,358.52,122.75Z"/><path class="cls-7" d="M385.45,120.38a2.49,2.49,0,0,0,.63,1.81,3.32,3.32,0,0,0,1.72.84h0a5,5,0,0,0-.28-2,16.21,16.21,0,0,0-2.07-.69Z"/><path class="cls-7" d="M391.75,19.11h0l-9.4-.56-.9,15a5,5,0,0,0,.27,2c.28.12.56.24.85.34a2.11,2.11,0,0,1,1.26,1.09,5.94,5.94,0,0,1,0-.73l.9-15,7.81.46h0l1.56.09h0l17,1,4.4.27.15-2.5Z"/><path class="cls-7" d="M384.05,38a.28.28,0,0,1,0,.09l0,0A.45.45,0,0,0,384.05,38Z"/><path class="cls-7" d="M387.29,41.12a5.31,5.31,0,0,1-.89-.35,2.24,2.24,0,0,1-.18.66l-9.36,20,1.48,4.49,10.23-21.83A2.16,2.16,0,0,0,387.29,41.12Z"/><path class="cls-7" d="M365.6,17.54l-17-1h0l-9.4-.56-.9,15a5,5,0,0,0,.28,1.95,14.82,14.82,0,0,0,2.07.7h0l.89-15,8.58.51h0l.81.05h0l17,1,4.41.27.15-2.5Z"/></g><g class="cls-3"><path class="cls-4" d="M257.64,47.92a7.64,7.64,0,0,1-1.25-.32,2.85,2.85,0,0,0,.64.95,4.09,4.09,0,0,0,2.12.84h0a1.5,1.5,0,0,0-.45-1A2.05,2.05,0,0,0,257.64,47.92Z"/><path class="cls-4" d="M275,46.82a4,4,0,0,1-2.09.9,2,2,0,0,0-1.05.45,1.45,1.45,0,0,0-.42,1.06l.2,15.23a1.49,1.49,0,0,0,1.51,1.47h0L273,50.7a1.45,1.45,0,0,1,.42-1.06,2,2,0,0,1,1.05-.45,4,4,0,0,0,2.09-.9,3,3,0,0,0,.84-2.12l-.12-8.93-1.49,0,.1,7.44A3,3,0,0,1,275,46.82Z"/><path class="cls-4" d="M281.85,47.6a8.81,8.81,0,0,1-1.25-.32,2.83,2.83,0,0,0,.65.95,4,4,0,0,0,2.11.84h0a1.46,1.46,0,0,0-.45-1A1.94,1.94,0,0,0,281.85,47.6Z"/><path class="cls-4" d="M301.06,98.14a2.51,2.51,0,0,0-.86-.53,3.09,3.09,0,0,1,.25,1.15l.12,8.93-15.46.21h-.78l-3.16,0,0,1.49,4.65-.06h.78l15.46-.21-.12-8.93A3,3,0,0,0,301.06,98.14Z"/><path class="cls-4" d="M299.72,44.39a3,3,0,0,1-.84,2.11,4,4,0,0,1-2.09.9,2,2,0,0,0-1.05.45,1.46,1.46,0,0,0-.42,1.06l.6,45.44a1.52,1.52,0,0,0,.45,1.05,2,2,0,0,0,1.06.42l-.6-45.44a1.46,1.46,0,0,1,.42-1.06,2,2,0,0,1,1.05-.45,4,4,0,0,0,2.09-.9,3,3,0,0,0,.84-2.11l-.12-8.94-1.48,0Z"/><path class="cls-4" d="M277.2,98.46a2.51,2.51,0,0,0-.86-.53,3.09,3.09,0,0,1,.25,1.15l.12,8.93-5.14.07h-.47l-14.14.19,0,1.49,15.63-.21h.47l5.14-.07-.12-8.93A3,3,0,0,0,277.2,98.46Z"/><path class="cls-4" d="M282.25,77.81l-8.92.12a1.49,1.49,0,0,0-1.47,1.51l.2,15.23a1.54,1.54,0,0,0,.45,1,2,2,0,0,0,1.06.42l-.2-15.23a1.49,1.49,0,0,1,1.47-1.51l8.92-.12h0a1.49,1.49,0,0,0-.44-1A1.47,1.47,0,0,0,282.25,77.81Z"/></g><path class="cls-5" d="M292.71,34.06l-10.11.13h0l-5.39.07.12,8.93a3,3,0,0,0,.9,2.1,4,4,0,0,0,2.11.84,2,2,0,0,1,1.06.42,1.46,1.46,0,0,1,.45,1.05l.21,15.23a1.48,1.48,0,0,1-.43,1.06,1.42,1.42,0,0,1-1,.45l-8.93.12A1.49,1.49,0,0,1,270.15,63L270,47.76a1.45,1.45,0,0,1,.42-1.06,2.06,2.06,0,0,1,1.05-.45,4,4,0,0,0,2.09-.9,3,3,0,0,0,.84-2.12l-.12-8.93-5.56.08h0l-10.11.13h0l-5.56.08.12,8.93a3,3,0,0,0,.9,2.09,4,4,0,0,0,2.11.84,2,2,0,0,1,1.06.43,1.42,1.42,0,0,1,.45,1l.61,45.45a1.5,1.5,0,0,1-.42,1.06,2.06,2.06,0,0,1-1.05.45,4,4,0,0,0-2.1.9,3,3,0,0,0-.84,2.11l.12,8.93,5.6-.07c1.28,0,8.76-.13,10-.14l5.61-.07-.12-8.93a3,3,0,0,0-.9-2.09,4,4,0,0,0-2.12-.85,1.94,1.94,0,0,1-1.05-.42,1.51,1.51,0,0,1-.46-1L270.35,78a1.49,1.49,0,0,1,1.47-1.51l8.93-.12a1.5,1.5,0,0,1,1.06.42,1.54,1.54,0,0,1,.45,1l.2,15.23A1.49,1.49,0,0,1,282,94.1a2,2,0,0,1-1.05.45,4.05,4.05,0,0,0-2.09.9,3,3,0,0,0-.85,2.12l.12,8.93,5.43-.07c1.28,0,8.75-.13,10-.14l5.43-.07-.12-8.93a3,3,0,0,0-.9-2.09,4,4,0,0,0-2.12-.85,2,2,0,0,1-1.06-.42,1.54,1.54,0,0,1-.45-1.05l-.6-45.44a1.46,1.46,0,0,1,.42-1.06,2.06,2.06,0,0,1,1-.45,4,4,0,0,0,2.09-.9,2.93,2.93,0,0,0,.84-2.11L298.1,34l-5.4.07Z"/><g class="cls-6"><path class="cls-7" d="M298.12,35.48l-3.91.05h0l-15.5.2.12,8.93a2.83,2.83,0,0,0,.25,1.15,8.81,8.81,0,0,0,1.25.32l-.12-8.93,15.51-.2h.38l2,0Z"/><path class="cls-7" d="M283.36,49.07h0l.2,15.23a1.49,1.49,0,0,1-1.47,1.51l-8.92.12h0a1.54,1.54,0,0,0,.45,1,1.46,1.46,0,0,0,1.06.42l8.92-.12a1.46,1.46,0,0,0,1.06-.45,1.53,1.53,0,0,0,.42-1.06l-.21-15.23a1.5,1.5,0,0,0-.45-1A1.94,1.94,0,0,0,283.36,49.07Z"/><path class="cls-7" d="M274.25,35.79l-4.07.06h0l-10.1.13-5.56.08.12,8.93a2.82,2.82,0,0,0,.25,1.14,8.81,8.81,0,0,0,1.25.32h0L256,37.53l15.67-.21h.18l2.4,0Z"/><path class="cls-7" d="M281.92,98.39a4,4,0,0,1,2.09-.9,2,2,0,0,0,1.05-.45,1.53,1.53,0,0,0,.42-1.06l-.21-15.23a1.49,1.49,0,0,0-.44-1,1.47,1.47,0,0,0-1.07-.42h0L284,94.51a1.53,1.53,0,0,1-.42,1.06,2,2,0,0,1-1.05.45,4.05,4.05,0,0,0-2.09.9,3,3,0,0,0-.85,2.12l.1,7.44,1.49,0-.08-5.95A3,3,0,0,1,281.92,98.39Z"/><path class="cls-7" d="M257.7,98.72a4.14,4.14,0,0,1,2.1-.91,2,2,0,0,0,1.05-.44,1.55,1.55,0,0,0,.42-1.06l-.61-45.45a1.5,1.5,0,0,0-.45-1,2.05,2.05,0,0,0-1.06-.42h0l.61,45.45a1.51,1.51,0,0,1-.42,1,2,2,0,0,1-1,.45,4.14,4.14,0,0,0-2.1.91,3,3,0,0,0-.84,2.11l.1,7.44,1.49,0-.08-6A3,3,0,0,1,257.7,98.72Z"/><path class="cls-7" d="M297.43,95.82h0a1.54,1.54,0,0,0,.45,1.05,2,2,0,0,0,1.06.42,3.09,3.09,0,0,0-.25-1.15,8.94,8.94,0,0,0-1.26-.32Z"/><path class="cls-7" d="M273.57,96.14h0a1.54,1.54,0,0,0,.45,1,2,2,0,0,0,1.06.42,3.09,3.09,0,0,0-.25-1.15,8.94,8.94,0,0,0-1.26-.32Z"/></g><g class="cls-3"><path class="cls-4" d="M158.7,109a2.2,2.2,0,0,0,.93.36L141.55,42.41l-1.35.07,17.65,65.33A2.28,2.28,0,0,0,158.7,109Z"/><path class="cls-4" d="M131.41,45l-.38-.38a6.25,6.25,0,0,0-1-.72,5.82,5.82,0,0,1,1.11,3.12A5.57,5.57,0,0,1,131.41,45Z"/><path class="cls-4" d="M118.32,55.44a6.09,6.09,0,0,1-.61-.17,3.38,3.38,0,0,0,.79,1.07,3.1,3.1,0,0,0,1.34.65A1.91,1.91,0,0,0,118.32,55.44Z"/><path class="cls-4" d="M133.08,64.58l-1.31-5.29-3.89,28.9a1.72,1.72,0,0,0,1.8,2,1.71,1.71,0,0,1,0-.32Z"/><path class="cls-4" d="M164.33,111.93a2.69,2.69,0,0,0-1-.57,3.35,3.35,0,0,1,.34,1.31l.53,10.29-17.88.91-.46,0-4.16.21.09,1.72,5.87-.31.46,0,17.88-.91-.52-10.29A3.41,3.41,0,0,0,164.33,111.93Z"/><path class="cls-4" d="M142.35,103.64a1.7,1.7,0,0,0-1.11-.34l-14.07.72a1.67,1.67,0,0,0-1.08.46,1.75,1.75,0,0,0-.55,1l-.53,4h0a1.44,1.44,0,0,0,.3,1.2,1.82,1.82,0,0,0,1.14.45l.36.06v-.08h0l.54-4a1.71,1.71,0,0,1,1.62-1.49l14.07-.72h0l-.08-.32A1.67,1.67,0,0,0,142.35,103.64Z"/><path class="cls-4" d="M130.72,113.65a2.69,2.69,0,0,0-1-.57,3.35,3.35,0,0,1,.34,1.31l.53,10.29-6.28.32-16.12.83.09,1.71,17.77-.91h.06l6.28-.32L131.85,116A3.36,3.36,0,0,0,130.72,113.65Z"/></g><path class="cls-5" d="M158.25,107.79a2.91,2.91,0,0,1-1.35-.44,2.23,2.23,0,0,1-.85-1.17l-18.11-67-3.07.15h0l-11.65.6h0l-10,.51.53,10.29a3.38,3.38,0,0,0,1.13,2.37,3.24,3.24,0,0,0,1.61.73A1.82,1.82,0,0,1,118,55.7l-8.61,52.87a2.23,2.23,0,0,1-.73,1.25,2.84,2.84,0,0,1-1.3.57,4.69,4.69,0,0,0-2.38,1.14,3.39,3.39,0,0,0-.87,2.47l.52,10.29,6.28-.32c1.47-.09,10.08-.53,11.55-.6l6.28-.32-.52-10.28a3.45,3.45,0,0,0-1.14-2.38,4.71,4.71,0,0,0-2.47-.88,1.86,1.86,0,0,1-1.13-.44,1.44,1.44,0,0,1-.3-1.21h0l.54-4a1.68,1.68,0,0,1,.54-1,1.74,1.74,0,0,1,1.08-.45l14.08-.73a1.7,1.7,0,0,1,1.11.34,1.76,1.76,0,0,1,.65,1l1,3.92h0a1.5,1.5,0,0,1-.18,1.23,1.86,1.86,0,0,1-1.08.56,4.53,4.53,0,0,0-2.37,1.13,3.41,3.41,0,0,0-.89,2.47l.53,10.29,6.33-.32c1.47-.09,10.08-.53,11.56-.6l6.32-.32L161.86,111a3.44,3.44,0,0,0-1.13-2.37A4.55,4.55,0,0,0,158.25,107.79ZM136.7,87.44a1.73,1.73,0,0,1-1.3.69l-7.53.38a1.72,1.72,0,0,1-1.79-2L130,57.66,137,86A1.74,1.74,0,0,1,136.7,87.44Z"/><g class="cls-6"><path class="cls-10" d="M108.62,114.78a4.68,4.68,0,0,1,2.37-1.13,2.88,2.88,0,0,0,1.31-.57,2.24,2.24,0,0,0,.72-1.25L121.63,59a1.82,1.82,0,0,0-1.51-1.9l-.28-.07a1.29,1.29,0,0,1,0,.34l-8.61,52.87a2.3,2.3,0,0,1-.72,1.25,2.88,2.88,0,0,1-1.31.57,4.6,4.6,0,0,0-2.37,1.13,3.38,3.38,0,0,0-.88,2.48l.44,8.57,1.71-.09-.35-6.85A3.47,3.47,0,0,1,108.62,114.78Z"/><path class="cls-10" d="M159.63,109.34l0,.1a2.24,2.24,0,0,0,.84,1.17,2.89,2.89,0,0,0,1.36.43,3.53,3.53,0,0,0-.34-1.31,11.85,11.85,0,0,0-1.46-.32Z"/><path class="cls-10" d="M138.86,42.55l-.46-1.7-1.73.09h0l-11.64.6-10,.51.53,10.29a3.47,3.47,0,0,0,.33,1.3c.21.07.41.12.61.17a2,2,0,0,1,.91.45c0-.1,0-.2,0-.3l-.52-10.28,10-.52h0"/><path class="cls-10" d="M142.13,113.06a4.75,4.75,0,0,1,2.38-1.13,1.9,1.9,0,0,0,1.08-.55,1.47,1.47,0,0,0,.17-1.23h0l-1-3.92a1.77,1.77,0,0,0-.65-1,1.73,1.73,0,0,0-1.08-.34l.89,3.6h0a1.43,1.43,0,0,1-.18,1.23,1.84,1.84,0,0,1-1.08.55,4.65,4.65,0,0,0-2.37,1.14,3.36,3.36,0,0,0-.88,2.47l.44,8.57,1.71-.09-.35-6.85A3.48,3.48,0,0,1,142.13,113.06Z"/><path class="cls-10" d="M133.58,60.92l-.5,3.66,5.71,23a1.71,1.71,0,0,1-.29,1.44,1.74,1.74,0,0,1-1.29.7l-7.53.38h0a1.69,1.69,0,0,0,1.8,1.63l7.53-.38a1.73,1.73,0,0,0,1.59-2.14Z"/><path class="cls-10" d="M127.12,112.32a1.85,1.85,0,0,0,1.13.45,3.73,3.73,0,0,0-.34-1.32,7,7,0,0,0-1.1-.25A1.4,1.4,0,0,0,127.12,112.32Z"/></g><g class="cls-3"><path class="cls-4" d="M232.62,42.17l-5-.38c-2.59-.2-4,1.3-4.25,4.48l-4.15,54.44c-.18,2.25.37,3.74,1.61,4.5a7.3,7.3,0,0,1-.16-2.41l4.15-54.43q.36-4.78,4.25-4.49l5,.38a4.3,4.3,0,0,1,1.9.58A3.37,3.37,0,0,0,232.62,42.17Z"/><path class="cls-4" d="M247.31,33c1.66,3,2.29,7,1.92,11.92l-1.11,14.51-9.64-.74a2.67,2.67,0,0,1-1.28-.45,4.22,4.22,0,0,0,.56,1.22,2.93,2.93,0,0,0,2.17,1.32l9.64.74L250.68,47q.63-8.4-2.62-13.07C247.82,33.6,247.57,33.29,247.31,33Z"/><path class="cls-4" d="M247.66,74.08a3.06,3.06,0,0,0-.89-.87,4.78,4.78,0,0,1,.17,1.64L244.56,106q-.63,8.4-4.57,12.52t-10.63,3.61l-.35,0-10.62-.81c-4.07-.31-7.16-1.7-9.31-4.18a12.1,12.1,0,0,0,.67,1.11q3.23,4.64,10.09,5.17l10.62.81.35,0q6.72.5,10.63-3.61T246,108.08l2.37-31.14A4.42,4.42,0,0,0,247.66,74.08Z"/><path class="cls-4" d="M231.61,85.54l-1.79-.14a2.58,2.58,0,0,1-1.28-.46,4,4,0,0,0,.56,1.23,2.91,2.91,0,0,0,2.17,1.32l1.78.14h0a2.19,2.19,0,0,0-.37-1.43A1.43,1.43,0,0,0,231.61,85.54Z"/></g><path class="cls-5" d="M235.25,24.57c-1.38-.09-9.43-.72-10.82-.83h-.2q-6.87-.53-10.76,3.57t-4.53,12.55l-4.66,61.08q-.65,8.46,2.57,13.1t10.09,5.16l.25,0c1.37.1,9.36.69,10.72.82q6.72.48,10.63-3.61t4.58-12.52l2.37-31.14a4.47,4.47,0,0,0-.72-2.86,2.93,2.93,0,0,0-2.18-1.33l-16.21-1.24-.9,11.8A4.37,4.37,0,0,0,226.2,82a2.91,2.91,0,0,0,2.17,1.33l1.78.14a1.45,1.45,0,0,1,1.09.66,2.19,2.19,0,0,1,.37,1.43L230.54,99.6c-.25,3.19-1.66,4.68-4.25,4.48l-5-.39c-2.59-.19-3.77-1.88-3.52-5.07l4.15-54.44c.25-3.18,1.66-4.68,4.25-4.48l5,.38c2.59.2,3.77,1.89,3.52,5.08l-.55,7.25a4.47,4.47,0,0,0,.72,2.86A3,3,0,0,0,237,56.59l9.64.74,1.11-14.51q.65-8.4-2.63-13.07C243,26.66,239.69,24.94,235.25,24.57Z"/><g class="cls-6"><path class="cls-7" d="M245.48,72.75h0a4.7,4.7,0,0,0-.17-1.63,2.62,2.62,0,0,0-1.29-.46l-16.2-1.24-.9,11.8a4.46,4.46,0,0,0,.16,1.63,2.58,2.58,0,0,0,1.28.46h0l.9-11.8Z"/><path class="cls-7" d="M233.06,87.63h0L232,101.69q-.37,4.78-4.25,4.48l-5-.38a4.18,4.18,0,0,1-1.91-.58,3.39,3.39,0,0,0,3.36,2.67l5,.38c2.59.2,4-1.3,4.25-4.48l1.07-14a2.2,2.2,0,0,0-.37-1.44A1.43,1.43,0,0,0,233.06,87.63Z"/><path class="cls-7" d="M246.43,32.07c-.18-.4-.36-.8-.57-1.17a12.6,12.6,0,0,0-8.34-4.14c-.06,0-.11-.05-.17-.05l-.79-.06-10.89-.83q-6.85-.53-10.75,3.57t-4.53,12.55L205.73,103q-.57,7.5,1.9,12a10.35,10.35,0,0,0,.86.89,23.27,23.27,0,0,1-1.31-10.79L211.84,44q.65-8.46,4.53-12.56t10.76-3.57h.2l10.67.82h0l.1,0A13.43,13.43,0,0,1,246.43,32.07Z"/><path class="cls-7" d="M236,44.84a7.56,7.56,0,0,1,.17,2.41l-.55,7.26a4.72,4.72,0,0,0,.16,1.63,2.71,2.71,0,0,0,1.28.45h0l.55-7.25C237.76,47.09,237.21,45.6,236,44.84Z"/></g><g class="cls-3"><path class="cls-4" d="M333.6,64.5l-1.49-.18a1.48,1.48,0,0,0-1.11.31,1.52,1.52,0,0,0-.56,1L325,110.9a1.51,1.51,0,0,0,.3,1.11,2.08,2.08,0,0,0,1,.56h0l5.47-45.28a1.52,1.52,0,0,1,.57-1,1.48,1.48,0,0,1,1.1-.31l1.49.18h0a2.15,2.15,0,0,0-.31-1.1A1.54,1.54,0,0,0,333.6,64.5Z"/><path class="cls-4" d="M347.9,56a3,3,0,0,1,.13,1.26l-1.62,13.34-8.9-1.08a3,3,0,0,1-1.12-.37,2.53,2.53,0,0,0,.43.91,3,3,0,0,0,2,1.12l8.9,1.08,1.61-13.34a3,3,0,0,0-.62-2.21A3.21,3.21,0,0,0,347.9,56Z"/><path class="cls-4" d="M316.87,62.48l-1.49-.18a1.45,1.45,0,0,0-1.1.31,1.93,1.93,0,0,0-.56,1,4.05,4.05,0,0,1-1.13,2,3,3,0,0,1-2.2.61l-7.41-.9-.18,1.49,8.9,1.07a3,3,0,0,0,2.2-.61,4.05,4.05,0,0,0,1.12-2,2,2,0,0,1,.56-1,1.52,1.52,0,0,1,1.11-.31l1.49.18h0a1.49,1.49,0,0,0-1.31-1.66Z"/><path class="cls-4" d="M329.57,115.35a2.4,2.4,0,0,0-.79-.63,2.9,2.9,0,0,1,.1,1.17l-1.08,8.9-15.62-1.89-.43-.05-3.62-.44L308,123.9l5.11.61.43.06,15.62,1.88,1.07-8.89A3,3,0,0,0,329.57,115.35Z"/></g><path class="cls-5" d="M344.1,52.23l-14.44-1.75-10.08-1.22-14.44-1.74a3,3,0,0,0-2.21.61,3,3,0,0,0-1.13,2l-1.61,13.34,8.9,1.08a3,3,0,0,0,2.2-.62,4,4,0,0,0,1.12-2,2.08,2.08,0,0,1,.56-1,1.57,1.57,0,0,1,1.11-.31l1.49.18a1.52,1.52,0,0,1,1,.57,1.48,1.48,0,0,1,.3,1.1l-5.47,45.28a1.5,1.5,0,0,1-.56,1,2,2,0,0,1-1.1.31,4,4,0,0,0-2.2.62,3,3,0,0,0-1.13,2l-1.07,8.9,5.54.67L321,122.46l5.54.67,1.08-8.9A3,3,0,0,0,327,112a4.05,4.05,0,0,0-2-1.13,2,2,0,0,1-1-.56,1.44,1.44,0,0,1-.31-1.1L329.13,64a1.51,1.51,0,0,1,.57-1,1.49,1.49,0,0,1,1.11-.3l1.48.18a1.42,1.42,0,0,1,1,.56,2,2,0,0,1,.31,1.1,4,4,0,0,0,.62,2.2,3,3,0,0,0,2,1.13l8.9,1.07,1.61-13.34a3,3,0,0,0-.62-2.21A3,3,0,0,0,344.1,52.23Z"/><g class="cls-6"><path class="cls-7" d="M346.6,54.31a3.08,3.08,0,0,0-1.2-.42l-24.51-3-2.08-.26-12.37-1.49a3,3,0,0,0-2.21.62,3,3,0,0,0-1.12,2l-1.44,11.85,1.49.18,1.25-10.37a3,3,0,0,1,3.34-2.62l12.36,1.5,2.08.25,24.52,3h0A3.12,3.12,0,0,0,346.6,54.31Z"/><path class="cls-7" d="M310.15,113a4,4,0,0,1,2.2-.62,2,2,0,0,0,1.1-.31,1.46,1.46,0,0,0,.56-1l5.48-45.27a1.57,1.57,0,0,0-.31-1.11,1.54,1.54,0,0,0-1-.56h0l-5.47,45.27a1.52,1.52,0,0,1-.57,1,1.94,1.94,0,0,1-1.1.3,4.09,4.09,0,0,0-2.2.62,3,3,0,0,0-1.12,2l-.9,7.42,1.48.18L309,115A3,3,0,0,1,310.15,113Z"/><path class="cls-7" d="M334.91,66.16h0a8,8,0,0,0,.18,1.28,3,3,0,0,0,1.12.38h0a2,2,0,0,0-.31-1.1A1.47,1.47,0,0,0,334.91,66.16Z"/><path class="cls-7" d="M326.27,112.57a1.45,1.45,0,0,0,.31,1.1,1.92,1.92,0,0,0,1,.56h0a3.16,3.16,0,0,0-.1-1.18,8.46,8.46,0,0,0-1.21-.48Z"/></g><g class="cls-3"><path class="cls-4" d="M178.44,47.1a4.18,4.18,0,0,1-2.18.9,2.11,2.11,0,0,0-1.09.45,1.57,1.57,0,0,0-.45,1.1v44.9c0,1.76.63,2.89,1.88,3.41a4.73,4.73,0,0,1-.34-1.87V51.09a1.55,1.55,0,0,1,.45-1.09,2.06,2.06,0,0,1,1.1-.45,4.11,4.11,0,0,0,2.18-.91,3.07,3.07,0,0,0,.9-2.18V37.2h-1.54v7.72A3,3,0,0,1,178.44,47.1Z"/><path class="cls-4" d="M185.52,48a9.2,9.2,0,0,1-1.3-.35,3.07,3.07,0,0,0,.66,1,4.11,4.11,0,0,0,2.18.91h0a1.57,1.57,0,0,0-.45-1.1A2.11,2.11,0,0,0,185.52,48Z"/><path class="cls-4" d="M204.08,37.2v7.72a3.07,3.07,0,0,1-.9,2.18A4.24,4.24,0,0,1,201,48a2.14,2.14,0,0,0-1.09.45,1.57,1.57,0,0,0-.45,1.1v47.5q0,6.63-3.43,10.06c-2.27,2.27-6.54,3.41-10.91,3.43h-9.66q-5.88,0-9.24-2.7c.23.28.47.56.72.82q3.44,3.42,10.06,3.42h10.14l.14,0c4.15-.12,8.13-1.24,10.3-3.4S201,103,201,98.6V51.09a1.51,1.51,0,0,1,.46-1.09,2,2,0,0,1,1.09-.45,4.11,4.11,0,0,0,2.18-.91,3,3,0,0,0,.9-2.18V37.2Z"/><path class="cls-4" d="M160.41,48a9.44,9.44,0,0,1-1.29-.35,3.07,3.07,0,0,0,.66,1,4.11,4.11,0,0,0,2.18.91h0a1.57,1.57,0,0,0-.45-1.1A2.1,2.1,0,0,0,160.41,48Z"/></g><path class="cls-5" d="M186.47,34.11h-5.58v9.26a3.07,3.07,0,0,0,.9,2.18,4.11,4.11,0,0,0,2.18.91,2.14,2.14,0,0,1,1.1.45,1.55,1.55,0,0,1,.45,1.09V92.9q0,3.75-3.75,3.75h-4.85q-3.75,0-3.75-3.75V48a1.51,1.51,0,0,1,.46-1.09,2.07,2.07,0,0,1,1.09-.45,4.11,4.11,0,0,0,2.18-.91,3.07,3.07,0,0,0,.9-2.18V34.11h-22v9.26a3.08,3.08,0,0,0,.91,2.18,4.11,4.11,0,0,0,2.18.91,2.1,2.1,0,0,1,1.1.45,1.55,1.55,0,0,1,.45,1.09V95.51q0,6.63,3.42,10.06T173.9,109h.2c1.34,0,9.1,0,10.42,0,4.36,0,7.69-1.15,10-3.42s3.43-5.64,3.43-10.06V48a1.5,1.5,0,0,1,.45-1.09,2.11,2.11,0,0,1,1.09-.45,4.11,4.11,0,0,0,2.18-.91,3,3,0,0,0,.91-2.18V34.11H186.47Z"/><g class="cls-6"><path class="cls-7" d="M187.06,49.55h0v44.9q0,3.75-3.74,3.75h-4.86a4.72,4.72,0,0,1-1.86-.34c.52,1.25,1.65,1.88,3.41,1.88h4.85c2.49,0,3.75-1.25,3.75-3.75V51.09a1.56,1.56,0,0,0-.46-1.09A2,2,0,0,0,187.06,49.55Z"/><path class="cls-7" d="M163.5,51.09a1.53,1.53,0,0,0-.44-1.09,2.09,2.09,0,0,0-1.1-.45h0v47.5q0,5.88,2.7,9.24c.29.23.59.44.9.64a15.21,15.21,0,0,1-2.06-8.33Z"/><path class="cls-7" d="M173.86,35.66H157.33v9.26a3.08,3.08,0,0,0,.24,1.19,10,10,0,0,0,1.3.35h0V37.2H177.8V35.66Z"/><path class="cls-7" d="M188,35.66h-5.58v9.26a3.28,3.28,0,0,0,.24,1.19,10,10,0,0,0,1.3.35h0V37.2h18.56V35.66Z"/></g><g class="cls-9"><path class="cls-11" d="M199.52,135.9a3.67,3.67,0,0,1,1.1-2.47,10.06,10.06,0,0,1,3-2.16,18.72,18.72,0,0,1,4.32-1.49,22.61,22.61,0,0,1,5-.55q5.9,0,9,2.51a8.14,8.14,0,0,1,3.14,6.68,16.05,16.05,0,0,1-1.65,7,20,20,0,0,1-4.6,6.17,24,24,0,0,1-6.95,4.4,22.33,22.33,0,0,1-8.72,1.69,13.38,13.38,0,0,1-7.9-2.2,7.4,7.4,0,0,1-3.1-6.44,11.18,11.18,0,0,1,.9-4.56,16.37,16.37,0,0,1,2.13-3.58,15.81,15.81,0,0,1,2.43-2.51c.81-.65,1.45-1.14,1.93-1.45A4.94,4.94,0,0,1,199.52,135.9Zm3.14,12.1a5.39,5.39,0,0,0,.67,3.07,2.15,2.15,0,0,0,1.84.94,4.64,4.64,0,0,0,3.22-1.69,18.23,18.23,0,0,0,3-4,28.49,28.49,0,0,0,2.12-4.95,15,15,0,0,0,.83-4.4,2.94,2.94,0,0,0-.55-2.05,2.28,2.28,0,0,0-1.65-.55,3.43,3.43,0,0,0-1.61.44,5.59,5.59,0,0,0-1.5,1.13,6.51,6.51,0,0,0-1.1,1.65,4.66,4.66,0,0,0-.43,2,4.09,4.09,0,0,0,.36,1.92,2.85,2.85,0,0,1,.35,1.3,1,1,0,0,1-.31.71,1.09,1.09,0,0,1-.79.31,5.5,5.5,0,0,1-3.22-1.41A19,19,0,0,0,203,145,13.07,13.07,0,0,0,202.66,148Z"/><path class="cls-11" d="M241.78,134.41a5,5,0,0,0,.87-.78,18.13,18.13,0,0,1,2-1.73,16.15,16.15,0,0,1,2.95-1.73,8.78,8.78,0,0,1,3.73-.79,4.13,4.13,0,0,1,2.91,1,3.91,3.91,0,0,1,1.1,3,7.4,7.4,0,0,1-.83,3.26,15.37,15.37,0,0,1-2,3.1,14.53,14.53,0,0,1-2.44,2.36,3.81,3.81,0,0,1-2.12.94,1.16,1.16,0,0,1-1.26-.94,6,6,0,0,1-.23-1.18,7,7,0,0,0-.28-1.33,3,3,0,0,0-.59-1.1,1.32,1.32,0,0,0-1.1-.47,3,3,0,0,0-1.61.7,8.25,8.25,0,0,0-2,2.36,36.39,36.39,0,0,0-1.92,3.73q-1,2.16-1.77,4.28c-.53,1.42-1,2.74-1.3,4a11.53,11.53,0,0,0-.51,2.79,2.92,2.92,0,0,1-.27,1.37,1.27,1.27,0,0,1-1.22.52,23.46,23.46,0,0,1-3-.2,14.87,14.87,0,0,1-2.83-.63,6.9,6.9,0,0,1-2.16-1.14,2.24,2.24,0,0,1-.86-1.81,15,15,0,0,1,1.14-5.14q1.14-3,2.47-6.25c.89-2.14,1.72-4.27,2.48-6.36a16.51,16.51,0,0,0,1.14-5.5c0-.89.73-1.34,2.2-1.34a8.38,8.38,0,0,1,4,.79,6.11,6.11,0,0,1,2.09,1.73,4.79,4.79,0,0,1,.82,1.73C241.57,134.15,241.68,134.41,241.78,134.41Z"/></g><g class="cls-3"><path class="cls-4" d="M133.66,187.06a15.16,15.16,0,0,1-2.09-.51,5.18,5.18,0,0,0,1.09,1.56,6.65,6.65,0,0,0,3.53,1.37h0a2.42,2.42,0,0,0-.76-1.73A3.26,3.26,0,0,0,133.66,187.06Z"/><path class="cls-4" d="M166.79,270.74a4,4,0,0,0-1.43-.86,5.06,5.06,0,0,1,.43,1.91l.31,14.83-7.42.15-1.89,0-23.49.5,0,2.47,26-.55,1.89,0,7.42-.15-.32-14.83A4.89,4.89,0,0,0,166.79,270.74Z"/><path class="cls-4" d="M163.89,181.48a5,5,0,0,1-1.38,3.53,6.58,6.58,0,0,1-3.46,1.52,3.23,3.23,0,0,0-1.73.76,2.45,2.45,0,0,0-.7,1.76l1.59,75.47a2.49,2.49,0,0,0,.77,1.74,3.33,3.33,0,0,0,1.76.68l-1.59-75.46a2.52,2.52,0,0,1,.69-1.77,3.42,3.42,0,0,1,1.73-.76,6.65,6.65,0,0,0,3.47-1.52,4.93,4.93,0,0,0,1.38-3.53l-.32-14.83-2.47.05Z"/></g><path class="cls-12" d="M151.81,164.43l-16.79.35h0l-9.24.19.31,14.83a5,5,0,0,0,1.52,3.47,6.73,6.73,0,0,0,3.53,1.37,3.41,3.41,0,0,1,1.77.69,2.45,2.45,0,0,1,.75,1.74l1.59,75.46a2.47,2.47,0,0,1-.68,1.77,3.42,3.42,0,0,1-1.74.76,6.64,6.64,0,0,0-3.47,1.52,4.92,4.92,0,0,0-1.37,3.53l.31,14.83,9.31-.2c2.12-.06,14.53-.32,16.66-.35l9.3-.2-.31-14.83a4.87,4.87,0,0,0-1.52-3.46,6.6,6.6,0,0,0-3.53-1.38,3.28,3.28,0,0,1-1.76-.68,2.5,2.5,0,0,1-.76-1.74l-1.59-75.46a2.49,2.49,0,0,1,.69-1.77,3.31,3.31,0,0,1,1.73-.76,6.69,6.69,0,0,0,3.47-1.52,4.91,4.91,0,0,0,1.37-3.53l-.31-14.83-9.24.2Z"/><g class="cls-9"><path class="cls-7" d="M154.33,166.85l-16.78.35h0l-9.24.19.31,14.83a4.88,4.88,0,0,0,.43,1.91,16.33,16.33,0,0,0,2.09.51h0l-.31-14.83,6.79-.14h0l2.42-.06h0l16.79-.35,4.29-.09-.05-2.48Z"/><path class="cls-7" d="M134.41,271.42a6.76,6.76,0,0,1,3.47-1.52,3.42,3.42,0,0,0,1.74-.76,2.41,2.41,0,0,0,.68-1.76l-1.59-75.47a2.44,2.44,0,0,0-.75-1.74,3.46,3.46,0,0,0-1.77-.69h0L137.78,265a2.47,2.47,0,0,1-.69,1.77,3.35,3.35,0,0,1-1.73.76,6.72,6.72,0,0,0-3.47,1.52,4.92,4.92,0,0,0-1.37,3.53l.26,12.35,2.47-.05L133,275A5,5,0,0,1,134.41,271.42Z"/></g><g class="cls-3"><path class="cls-4" d="M250.93,190.9a15.13,15.13,0,0,1-2.1-.46A4.9,4.9,0,0,0,250,192a6.71,6.71,0,0,0,3.56,1.29h0a2.48,2.48,0,0,0-.8-1.72A3.33,3.33,0,0,0,250.93,190.9Z"/><path class="cls-4" d="M291,189l-14.74.69a2.48,2.48,0,0,0-1.72.8,2.54,2.54,0,0,0-.64,1.79l1.18,25.27a2.46,2.46,0,0,0,2.58,2.36h0l-1.17-25.28a2.46,2.46,0,0,1,2.35-2.58l14.74-.69h0a3.35,3.35,0,0,0-.8-1.71A2.48,2.48,0,0,0,291,189Z"/><path class="cls-4" d="M316.77,263.41l.92,19.73a5,5,0,0,1-4.73,5.2l-53,2.46-1.2.06-5.63.26.12,2.47,8.1-.37,1.19-.06,53-2.47a5,5,0,0,0,4.73-5.19l-1-22.21Z"/><path class="cls-4" d="M312,171.19a4.91,4.91,0,0,1,.55,2l1,22.21-14.82.69a4.94,4.94,0,0,1-1.93-.3,4.11,4.11,0,0,0,1,1.37,4.87,4.87,0,0,0,3.56,1.28l14.82-.68-1-22.21a5,5,0,0,0-1.62-3.44A4.83,4.83,0,0,0,312,171.19Z"/><path class="cls-4" d="M306.63,236.07a2.46,2.46,0,0,1-2.36,2.58l-25.64,1.19a2.48,2.48,0,0,0-2.36,2.6l1.18,25.27a2.48,2.48,0,0,0,.8,1.71,2.44,2.44,0,0,0,1.78.65h0l-1.17-25.28a2.48,2.48,0,0,1,2.36-2.59L306.86,241a2.46,2.46,0,0,0,2.35-2.59l-.69-14.95a2.45,2.45,0,0,0-.81-1.72,2.49,2.49,0,0,0-1.78-.65h0Z"/></g><path class="cls-12" d="M304.8,166.12l-36.3,1.69h0l-16.78.78h0l-9.23.43.69,14.81a4.93,4.93,0,0,0,1.61,3.43,6.7,6.7,0,0,0,3.56,1.28,3.39,3.39,0,0,1,1.78.65,2.49,2.49,0,0,1,.81,1.71l3.5,75.4a2.48,2.48,0,0,1-.64,1.79,3.35,3.35,0,0,1-1.71.8,6.66,6.66,0,0,0-3.43,1.61,4.91,4.91,0,0,0-1.28,3.56l.69,14.82,9.29-.43c2.13-.12,14.52-.7,16.65-.78L310.38,286a5,5,0,0,0,4.73-5.19l-1-22.21-14.83.69a4.93,4.93,0,0,0-3.42,1.61,6.68,6.68,0,0,0-1.29,3.56,3.32,3.32,0,0,1-.64,1.78,2.44,2.44,0,0,1-1.71.8l-14.74.69a2.46,2.46,0,0,1-2.59-2.36l-1.17-25.27a2.48,2.48,0,0,1,2.35-2.59l25.65-1.19a2.48,2.48,0,0,0,2.35-2.59l-.69-15a2.5,2.5,0,0,0-2.59-2.36l-25.64,1.2a2.53,2.53,0,0,1-1.79-.65,2.48,2.48,0,0,1-.8-1.72L271.35,190a2.48,2.48,0,0,1,2.36-2.59l14.74-.68a2.46,2.46,0,0,1,1.78.64A3.39,3.39,0,0,1,291,189a6.66,6.66,0,0,0,1.61,3.42,4.9,4.9,0,0,0,3.55,1.28l14.83-.68-1-22.21a5,5,0,0,0-5.19-4.73Z"/><g class="cls-9"><path class="cls-7" d="M277.7,219.94a2.47,2.47,0,0,0,.81,1.72,2.44,2.44,0,0,0,1.78.64l23.17-1.08-.11-2.47h0l-25.65,1.19Z"/><path class="cls-7" d="M298.42,263.23a6.74,6.74,0,0,0-1.29,3.56,3.41,3.41,0,0,1-.64,1.79,2.5,2.5,0,0,1-1.72.8l-14.73.69h0a2.48,2.48,0,0,0,2.59,2.35l14.74-.68a2.45,2.45,0,0,0,1.71-.81,3.28,3.28,0,0,0,.65-1.78,6.59,6.59,0,0,1,1.28-3.56,4.93,4.93,0,0,1,3.42-1.61l9.89-.46-.12-2.47-12.35.57A4.89,4.89,0,0,0,298.42,263.23Z"/><path class="cls-7" d="M310,170.83a4.76,4.76,0,0,0-.55-2,5,5,0,0,0-2.05-.36l-36.31,1.69h0l-16.77.77-9.23.43.69,14.82a5,5,0,0,0,.47,1.89,15.27,15.27,0,0,0,2.11.46h0l-.69-14.81,26-1.21h0l2.14-.1h0L310,170.83Z"/><path class="cls-7" d="M253.83,275.21a6.74,6.74,0,0,1,3.43-1.61,3.35,3.35,0,0,0,1.71-.8,2.48,2.48,0,0,0,.65-1.78l-3.51-75.41a2.45,2.45,0,0,0-.81-1.71,3.26,3.26,0,0,0-1.78-.64h0l3.51,75.4a2.47,2.47,0,0,1-.64,1.78,3.3,3.3,0,0,1-1.72.8,6.76,6.76,0,0,0-3.42,1.62,4.91,4.91,0,0,0-1.29,3.56l.58,12.34,2.47-.11-.46-9.88A4.93,4.93,0,0,1,253.83,275.21Z"/></g><g class="cls-3"><path class="cls-4" d="M379.46,178.32c.18-.18.36-.36.56-.53a8.83,8.83,0,0,1,1.44-1,8.43,8.43,0,0,0-1.69,4.46A8.57,8.57,0,0,0,379.46,178.32Z"/><path class="cls-4" d="M351.56,190.57l14.71,1.09a2.47,2.47,0,0,1,2.28,2.65l-1.87,25.23a2.46,2.46,0,0,1-2.65,2.29h0l1.87-25.24a2.44,2.44,0,0,0-.59-1.8,2.5,2.5,0,0,0-1.69-.85l-14.71-1.09h0a3.38,3.38,0,0,1,.86-1.69A2.42,2.42,0,0,1,351.56,190.57Z"/><path class="cls-4" d="M332.48,266.63l-1.2,16.15a5,5,0,0,0,4.59,5.32l3.81.26,1.19.09,5.62.42-.18,2.47-8.09-.6-1.19-.09-3.82-.27a4.95,4.95,0,0,1-4.58-5.32L330,266.45Z"/><path class="cls-4" d="M331.06,172.15a4.89,4.89,0,0,0-.6,2l-1.65,22.17,14.8,1.1a4.9,4.9,0,0,0,1.93-.25,3.77,3.77,0,0,1-1,1.34A4.91,4.91,0,0,1,341,199.7l-14.8-1.1,1.64-22.17a5,5,0,0,1,1.72-3.39A4.87,4.87,0,0,1,331.06,172.15Z"/><path class="cls-4" d="M333.4,261.46s-2.94-1.07-2.8-3,1.38-18.41,1.42-19l1.11-14.94a2.47,2.47,0,0,1,2.65-2.28h0Z"/></g><path class="cls-5" d="M345.54,267.64c-2.14-.16.92.05-1.22-.11h0l-9.21-.7L334,281.62a5,5,0,0,0,1.17,3.6,6.72,6.72,0,0,0,3.38,1.7c.61.19,9.17.86,9.79.77a6.66,6.66,0,0,0,3.6-1.18,4.94,4.94,0,0,0,1.71-3.38l1.12-14.79-6.68-.51Z"/><path class="cls-5" d="M338.42,167.28,374.67,170h0l18.38,1.36h0s-1.42,21.58-1.46,22.21l-2.76,37.14c-.56,7.5-2.1,10.45-11.28,9.77l-17.78-1.21a2.51,2.51,0,0,0-2.67,2.32l-1.61,21.55c-1.5-.12-10.92-.83-15.9-1.19a4.27,4.27,0,0,1-3.95-4.58l1.43-19.16c.05-.63,1.36-18.25,1.36-18.25a2.47,2.47,0,0,1,2.65-2.28l25.6,1.9a2.48,2.48,0,0,0,1.8-.6,2.43,2.43,0,0,0,.85-1.69L371.2,192a2.42,2.42,0,0,0-.59-1.8,2.47,2.47,0,0,0-1.69-.86l-14.71-1.09a2.42,2.42,0,0,0-1.8.6,3.38,3.38,0,0,0-.86,1.69,6.54,6.54,0,0,1-1.7,3.37,4.86,4.86,0,0,1-3.59,1.19L331.46,194l1.64-22.18a5,5,0,0,1,5.32-4.58Z"/><g class="cls-6"><path class="cls-7" d="M364,221.83a2.47,2.47,0,0,1-2.65,2.28l-23.13-1.71.18-2.47h0l25.6,1.9Z"/><path class="cls-7" d="M348.91,285.71a2.48,2.48,0,0,0,2.66-2.29l1.14-15.28-2.46-.18Z"/><path class="cls-7" d="M386.35,234.36c.07-.85,2.4-36,2.4-36s0-.05,0-.07l1.83-24.67-1.83-.14L372,172.25h0l-36.24-2.68a4.75,4.75,0,0,0-2.07.3,4.85,4.85,0,0,0-.6,2h0l34.1,2.53h0l2.13.16h0l18.57,1.37-1.65,22.17v0S384.7,224,384,234a2.86,2.86,0,0,1-2.56,2.15l-20.67-1.54c-2.5-.18-3.28,2.24-2.65,2.29l22.9,1.7C383.3,238.72,386.21,236.32,386.35,234.36Z"/></g><g class="cls-3"><path class="cls-4" d="M212.38,188.42l-7.72-.19q-6-.15-6.17,5.85l-1.72,68.4c-.07,2.82.91,4.65,2.88,5.54a7.63,7.63,0,0,1-.46-3l1.71-68.39q.15-6,6.18-5.86l7.71.2a7.53,7.53,0,0,1,3,.62C217,189.56,215.22,188.49,212.38,188.42Z"/><path class="cls-4" d="M234.22,176.07q4.22,5.51,4,14.83l-.46,18.23-14.9-.37a4.89,4.89,0,0,1-2-.5,4.92,4.92,0,0,0,4.42,3l14.91.37.45-18.23q.27-10.56-5.15-16.22A13.63,13.63,0,0,0,234.22,176.07Z"/><path class="cls-4" d="M236.68,251.88l-.39,15.77q-.27,10.55-6,15.93t-16.06,5.13h0l-16.84-.42c-6.35-.16-11.29-1.77-14.86-4.82a15.78,15.78,0,0,0,1.25,1.46q5.41,5.63,16,5.9l17.46.43a.86.86,0,0,0,.17,0c6.54,0,11.65-1.68,15.28-5.11q5.69-5.4,6-15.94l.46-18.23Z"/></g><path class="cls-12" d="M214.94,166.23c-2.13,0-14.58-.37-16.73-.42H198q-10.6-.27-16.3,5.08t-6,16l-1.92,76.75q-.27,10.62,5.15,16.25t16,5.89h.26c2.13,0,14.49.33,16.59.41q10.38.24,16.06-5.12t6-15.94l.46-18.24-14.91-.37a4.94,4.94,0,0,0-5.06,4.82l-.23,9.12c-.1,4-2.16,5.95-6.18,5.85l-7.72-.19q-6-.15-5.88-6.15l1.72-68.4q.15-6,6.17-5.86l7.72.19q6,.15,5.88,6.16l-.23,9.12a5,5,0,0,0,4.82,5.06l14.9.38.46-18.24c.18-7-1.55-12.43-5.15-16.21S221.83,166.43,214.94,166.23Z"/><g class="cls-9"><path class="cls-7" d="M232.79,175c-.31-.49-.63-1-1-1.44q-5.26-4.49-14.46-4.76h-.1l-.13,0-16.49-.42h-.21q-10.6-.27-16.3,5.08t-6,16l-1.92,76.74q-.24,9.32,3.91,14.8c.46.38.94.75,1.44,1.09-2.1-3.48-3.08-7.92-2.94-13.35l1.92-76.75q.27-10.62,6-16t16.29-5.09l16.7.42s0,0,.05,0l.19,0Q227.77,171.54,232.79,175Z"/><path class="cls-7" d="M218.31,250.4a4.91,4.91,0,0,0-1.53,3.46l-.23,9.12q-.15,6-6.18,5.85l-7.72-.19a7.79,7.79,0,0,1-3-.62c.78,2,2.57,3.08,5.41,3.15l7.72.19q6,.15,6.18-5.85l.23-9.12a4.94,4.94,0,0,1,5.06-4.82l10,.25.06-2.47L221.84,249A5,5,0,0,0,218.31,250.4Z"/><path class="cls-7" d="M217.79,191.58a7.54,7.54,0,0,1,.47,3L218,203.7a4.94,4.94,0,0,0,.4,2,4.88,4.88,0,0,0,2,.49h0l.23-9.11C220.74,194.29,219.77,192.46,217.79,191.58Z"/></g><g class="cls-13"><path d="M265.42,148.78H262a16.4,16.4,0,0,0,3.33-7.38h3.43A16.4,16.4,0,0,1,265.42,148.78Z"/><path d="M293.32,148.78h-6a16.43,16.43,0,0,0,3.34-7.38h6A16.4,16.4,0,0,1,293.32,148.78Z"/><path d="M278.36,148.78h-1.48a16.32,16.32,0,0,0,3.34-7.38h1.47A16.4,16.4,0,0,1,278.36,148.78Z"/><path d="M275.71,148.78h-4.82a16.4,16.4,0,0,0,3.33-7.38H279A16.4,16.4,0,0,1,275.71,148.78Z"/><path d="M301.85,148.78h-1.6a16.4,16.4,0,0,0,3.33-7.38h1.61A16.32,16.32,0,0,1,301.85,148.78Z"/><path d="M285.8,148.78h-3.35a16.53,16.53,0,0,0,3.34-7.38h3.34A16.4,16.4,0,0,1,285.8,148.78Z"/><path d="M306.61,148.78h-3.44a16.53,16.53,0,0,0,3.34-7.38h3.43A16.4,16.4,0,0,1,306.61,148.78Z"/><path d="M334.51,148.78h-6a16.4,16.4,0,0,0,3.33-7.38h6A16.4,16.4,0,0,1,334.51,148.78Z"/><path d="M319.55,148.78h-1.48a16.4,16.4,0,0,0,3.33-7.38h1.48A16.4,16.4,0,0,1,319.55,148.78Z"/><path d="M316.9,148.78h-4.83a16.4,16.4,0,0,0,3.33-7.38h4.83A16.4,16.4,0,0,1,316.9,148.78Z"/><path d="M327,148.78h-3.34A16.4,16.4,0,0,0,327,141.4h3.34A16.4,16.4,0,0,1,327,148.78Z"/></g><path class="cls-5" d="M264.7,148.06h-3.43a16.4,16.4,0,0,0,3.33-7.38H268A16.4,16.4,0,0,1,264.7,148.06Z"/><path class="cls-5" d="M292.6,148.06h-6a16.43,16.43,0,0,0,3.34-7.38h6A16.4,16.4,0,0,1,292.6,148.06Z"/><path class="cls-5" d="M277.64,148.06h-1.48a16.32,16.32,0,0,0,3.34-7.38H281A16.4,16.4,0,0,1,277.64,148.06Z"/><path class="cls-8" d="M275,148.06h-4.82a16.4,16.4,0,0,0,3.33-7.38h4.82A16.4,16.4,0,0,1,275,148.06Z"/><path class="cls-8" d="M301.13,148.06h-1.6a16.4,16.4,0,0,0,3.33-7.38h1.61A16.32,16.32,0,0,1,301.13,148.06Z"/><path class="cls-8" d="M285.08,148.06h-3.35a16.53,16.53,0,0,0,3.34-7.38h3.34A16.4,16.4,0,0,1,285.08,148.06Z"/><path class="cls-5" d="M305.89,148.06h-3.44a16.53,16.53,0,0,0,3.34-7.38h3.43A16.4,16.4,0,0,1,305.89,148.06Z"/><path class="cls-5" d="M333.79,148.06h-6a16.4,16.4,0,0,0,3.33-7.38h6A16.4,16.4,0,0,1,333.79,148.06Z"/><path class="cls-5" d="M318.83,148.06h-1.48a16.4,16.4,0,0,0,3.33-7.38h1.48A16.4,16.4,0,0,1,318.83,148.06Z"/><path class="cls-8" d="M316.18,148.06h-4.83a16.4,16.4,0,0,0,3.33-7.38h4.83A16.4,16.4,0,0,1,316.18,148.06Z"/><path class="cls-8" d="M326.26,148.06h-3.34a16.4,16.4,0,0,0,3.33-7.38h3.34A16.4,16.4,0,0,1,326.26,148.06Z"/><g class="cls-13"><path d="M110.9,148.78h-3.43a16.4,16.4,0,0,0,3.33-7.38h3.43A16.4,16.4,0,0,1,110.9,148.78Z"/><path d="M138.81,148.78h-6a16.4,16.4,0,0,0,3.33-7.38h6A16.4,16.4,0,0,1,138.81,148.78Z"/><path d="M123.84,148.78h-1.47a16.4,16.4,0,0,0,3.33-7.38h1.47A16.4,16.4,0,0,1,123.84,148.78Z"/><path d="M121.2,148.78h-4.83a16.4,16.4,0,0,0,3.33-7.38h4.83A16.4,16.4,0,0,1,121.2,148.78Z"/><path d="M147.34,148.78h-1.61a16.4,16.4,0,0,0,3.33-7.38h1.61A16.4,16.4,0,0,1,147.34,148.78Z"/><path d="M131.28,148.78h-3.34a16.4,16.4,0,0,0,3.33-7.38h3.34A16.4,16.4,0,0,1,131.28,148.78Z"/><path d="M152.09,148.78h-3.43A16.4,16.4,0,0,0,152,141.4h3.43A16.4,16.4,0,0,1,152.09,148.78Z"/><path d="M180,148.78h-6a16.4,16.4,0,0,0,3.33-7.38h6A16.4,16.4,0,0,1,180,148.78Z"/><path d="M165,148.78h-1.48a16.4,16.4,0,0,0,3.33-7.38h1.48A16.4,16.4,0,0,1,165,148.78Z"/><path d="M162.38,148.78h-4.83a16.43,16.43,0,0,0,3.34-7.38h4.82A16.4,16.4,0,0,1,162.38,148.78Z"/><path d="M172.47,148.78h-3.35a16.4,16.4,0,0,0,3.33-7.38h3.35A16.4,16.4,0,0,1,172.47,148.78Z"/></g><path class="cls-5" d="M110.18,148.06h-3.43a16.4,16.4,0,0,0,3.33-7.38h3.43A16.4,16.4,0,0,1,110.18,148.06Z"/><path class="cls-5" d="M138.09,148.06h-6a16.4,16.4,0,0,0,3.33-7.38h6A16.4,16.4,0,0,1,138.09,148.06Z"/><path class="cls-5" d="M123.12,148.06h-1.47a16.4,16.4,0,0,0,3.33-7.38h1.47A16.4,16.4,0,0,1,123.12,148.06Z"/><path class="cls-8" d="M120.48,148.06h-4.83a16.4,16.4,0,0,0,3.33-7.38h4.83A16.4,16.4,0,0,1,120.48,148.06Z"/><path class="cls-8" d="M146.62,148.06H145a16.4,16.4,0,0,0,3.33-7.38H150A16.4,16.4,0,0,1,146.62,148.06Z"/><path class="cls-8" d="M130.56,148.06h-3.34a16.4,16.4,0,0,0,3.33-7.38h3.34A16.4,16.4,0,0,1,130.56,148.06Z"/><path class="cls-5" d="M151.37,148.06h-3.43a16.4,16.4,0,0,0,3.33-7.38h3.43A16.4,16.4,0,0,1,151.37,148.06Z"/><path class="cls-5" d="M179.27,148.06h-6a16.4,16.4,0,0,0,3.33-7.38h6A16.4,16.4,0,0,1,179.27,148.06Z"/><path class="cls-5" d="M164.31,148.06h-1.48a16.4,16.4,0,0,0,3.33-7.38h1.48A16.4,16.4,0,0,1,164.31,148.06Z"/><path class="cls-8" d="M161.66,148.06h-4.83a16.43,16.43,0,0,0,3.34-7.38H165A16.4,16.4,0,0,1,161.66,148.06Z"/><path class="cls-8" d="M171.75,148.06H168.4a16.4,16.4,0,0,0,3.33-7.38h3.35A16.4,16.4,0,0,1,171.75,148.06Z"/></g></g></g></svg>